<mxfile host="app.diagrams.net" modified="2023-10-11T01:14:23.259Z" agent="Mozilla/5.0 (Windows NT 10.0; Win64; x64) AppleWebKit/537.36 (KHTML, like Gecko) Chrome/117.0.0.0 Safari/537.36" etag="tMh5TRtHHhnsysxarZKr" version="22.0.4" type="google">
  <diagram name="Page-1" id="4dWl3C3BqsDxm5pRTNil">
    <mxGraphModel grid="1" page="1" gridSize="10" guides="1" tooltips="1" connect="1" arrows="1" fold="1" pageScale="1" pageWidth="850" pageHeight="1100" math="0" shadow="0">
      <root>
        <mxCell id="0" />
        <mxCell id="1" parent="0" />
        <mxCell id="M0X2HO2ULq1o6sqybviV-1" value="" style="whiteSpace=wrap;html=1;aspect=fixed;" vertex="1" parent="1">
          <mxGeometry x="290" y="305" width="470" height="470" as="geometry" />
        </mxCell>
        <mxCell id="M0X2HO2ULq1o6sqybviV-19" style="edgeStyle=orthogonalEdgeStyle;rounded=0;orthogonalLoop=1;jettySize=auto;html=1;exitX=1;exitY=0.5;exitDx=0;exitDy=0;entryX=0;entryY=0.5;entryDx=0;entryDy=0;" edge="1" parent="1" source="M0X2HO2ULq1o6sqybviV-2" target="M0X2HO2ULq1o6sqybviV-15">
          <mxGeometry relative="1" as="geometry" />
        </mxCell>
        <mxCell id="M0X2HO2ULq1o6sqybviV-2" value="Primary Actor: Shopper" style="rounded=0;whiteSpace=wrap;html=1;" vertex="1" parent="1">
          <mxGeometry x="30" y="520" width="140" height="40" as="geometry" />
        </mxCell>
        <mxCell id="M0X2HO2ULq1o6sqybviV-4" value="App" style="text;html=1;strokeColor=none;fillColor=none;align=center;verticalAlign=middle;whiteSpace=wrap;rounded=0;" vertex="1" parent="1">
          <mxGeometry x="690" y="740" width="60" height="30" as="geometry" />
        </mxCell>
        <mxCell id="M0X2HO2ULq1o6sqybviV-5" value="" style="ellipse;whiteSpace=wrap;html=1;" vertex="1" parent="1">
          <mxGeometry x="300" y="320" width="170" height="80" as="geometry" />
        </mxCell>
        <mxCell id="M0X2HO2ULq1o6sqybviV-8" value="Registered Active Account" style="text;html=1;strokeColor=none;fillColor=none;align=center;verticalAlign=middle;whiteSpace=wrap;rounded=0;" vertex="1" parent="1">
          <mxGeometry x="355" y="345" width="60" height="30" as="geometry" />
        </mxCell>
        <mxCell id="M0X2HO2ULq1o6sqybviV-13" value="Include&amp;lt;&amp;lt;&amp;gt;&amp;gt;" style="text;html=1;strokeColor=none;fillColor=none;align=center;verticalAlign=middle;whiteSpace=wrap;rounded=0;" vertex="1" parent="1">
          <mxGeometry x="670" y="480" width="60" height="30" as="geometry" />
        </mxCell>
        <mxCell id="M0X2HO2ULq1o6sqybviV-18" style="edgeStyle=orthogonalEdgeStyle;rounded=0;orthogonalLoop=1;jettySize=auto;html=1;exitX=0.5;exitY=0;exitDx=0;exitDy=0;" edge="1" parent="1" source="M0X2HO2ULq1o6sqybviV-15" target="M0X2HO2ULq1o6sqybviV-5">
          <mxGeometry relative="1" as="geometry" />
        </mxCell>
        <mxCell id="M0X2HO2ULq1o6sqybviV-15" value="Dietary Preferences" style="ellipse;whiteSpace=wrap;html=1;" vertex="1" parent="1">
          <mxGeometry x="570" y="510" width="140" height="90" as="geometry" />
        </mxCell>
      </root>
    </mxGraphModel>
  </diagram>
</mxfile>
